<svg version="1.1" xmlns="http://www.w3.org/2000/svg">
  <symbol id="checklist-incomplete" viewBox="0 0 16 16"><path d="M2 1c0-.5.4-1 1-1h7l4 3.4V15c0 .5-.4 1-1 1H3c-.5 0-1-.4-1-1V1z"/><path fill="#FFF" d="M10 0v2.4c0 .5.4 1 1 1h3L10 0zm1.8 5.5c0 .1-.1.2-.2.2H7.8c-.1 0-.2-.1-.2-.2s.1-.2.2-.2h3.8c0-.1.2.1.2.2zm-1.6 1.2c0 .2-.1.3-.2.3H7.8c-.2 0-.3-.1-.3-.3 0-.1.1-.2.2-.2H10c.1 0 .2.1.2.2zm1.6 2c0 .1-.1.2-.2.2H7.8c-.2.1-.3 0-.3-.2 0-.1.1-.2.2-.2h3.8c.1 0 .3.1.3.2zM10.2 10c0 .1-.1.2-.2.2H7.8c-.1 0-.2-.1-.2-.2s.1-.2.2-.2H10c.1-.1.2.1.2.2zm1.6 2c0 .1-.1.2-.2.2H7.8c-.1 0-.2-.1-.2-.2s.1-.2.2-.2h3.8c0-.1.2.1.2.2zm-1.6 1.2c0 .1-.1.2-.2.2H7.8c-.1 0-.2-.1-.2-.2s.1-.2.2-.2H10c.1 0 .2.1.2.2zM5 10.5l-.9-.9c-.1-.1-.1-.3 0-.4.1-.1.3-.1.4 0l.5.6 1.1-1.3c.1-.1.2-.1.4 0 .1.1.1.2 0 .4 0-.1-1.5 1.6-1.5 1.6zm0 3.2l-.9-.9c-.1-.1-.1-.3 0-.4.1-.1.3-.1.4 0l.5.6 1.1-1.3c.1-.1.2-.1.4 0 .1.1.1.2 0 .4 0-.1-1.5 1.6-1.5 1.6zm.6-7.5l.7-.7c.1-.1.1-.3 0-.4-.1-.1-.2-.1-.3 0l-.7.7-.7-.7c-.1-.1-.3-.1-.4 0-.1.1-.1.3 0 .4l.7.7-.7.7c-.1.1-.1.2 0 .3.1.1.3.1.4 0l.7-.7.7.7s.1.1.2.1.1 0 .2-.1.1-.3 0-.4c-.1.1-.8-.6-.8-.6z"/></symbol>
  <symbol id="search" viewBox="0 0 16 16"><path d="M14.8 12.8l-3.5-3.5c.9-1.6 1.1-3.6 0-5.6C10.5 2 8.7 1 6.8 1 4.1 1 1.7 2.8 1.1 5.4c-.7 3.6 2 6.7 5.4 6.7 1 0 2-.3 2.8-.8l3.4 3.4.1.1c.3.3.7.3.9 0l1.1-1.1c.3-.2.3-.7 0-.9zm-8.3-2.1c-2.9 0-5-2.9-3.7-5.9.6-1.5 2.2-2.4 3.7-2.4 1.1 0 2.1.4 2.9 1.2.8.8 1.2 1.8 1.2 2.9 0 1.1-.4 2.1-1.2 2.9-.7.9-1.8 1.3-2.9 1.3z"/></symbol>
  <symbol id="cancel" viewBox="0 0 16 16"><path d="M4.1 4.1c-2.2 2.2-2.2 5.7 0 7.9s5.7 2.2 7.9 0 2.2-5.7 0-7.9-5.9-2.3-7.9 0zm5.2 3.8l2.1 2.1-1.4 1.4-2-2.1-2.1 2.1L4.5 10l2.1-2.1-2.1-2.1 1.4-1.4L8 6.6l2.1-2.1 1.4 1.4-2.2 2z"/></symbol>
</svg>
