<svg version="1.1" xmlns="http://www.w3.org/2000/svg">
  <symbol id="checklist-incomplete" viewBox="0 0 100 100"><path d="M20 14.8c0-2.7 2.1-4.8 4.8-4.8H60l20 16.8v58.4c0 2.7-2.1 4.8-4.8 4.8H24.8c-2.7 0-4.8-2.1-4.8-4.8V14.8z"/><path fill="#fff" d="M60 10v12c0 2.7 2.1 4.8 4.8 4.8H80L60 10zm8.8 27.5c0 .7-.6 1.2-1.2 1.2H48.8c-.7 0-1.2-.6-1.2-1.2 0-.7.6-1.2 1.2-1.2h18.8c.6-.1 1.2.5 1.2 1.2zm-7.6 6.2c0 .7-.6 1.2-1.2 1.2H48.8c-.7 0-1.2-.6-1.2-1.2 0-.7.6-1.2 1.2-1.2H60c.7 0 1.2.6 1.2 1.2zm7.6 10c0 .7-.6 1.2-1.2 1.2H48.8c-.7 0-1.2-.6-1.2-1.2 0-.7.6-1.2 1.2-1.2h18.8c.6 0 1.2.6 1.2 1.2zM61.2 60c0 .7-.6 1.2-1.2 1.2H48.8c-.7 0-1.2-.6-1.2-1.2 0-.7.6-1.2 1.2-1.2H60c.7-.1 1.2.5 1.2 1.2zm7.6 10c0 .7-.6 1.2-1.2 1.2H48.8c-.7 0-1.2-.6-1.2-1.2 0-.7.6-1.2 1.2-1.2h18.8c.6-.1 1.2.5 1.2 1.2zm-7.6 6.2c0 .7-.6 1.2-1.2 1.2H48.8c-.7 0-1.2-.6-1.2-1.2 0-.7.6-1.2 1.2-1.2H60c.7 0 1.2.6 1.2 1.2zM35.1 62.5l-4.7-4.7c-.5-.5-.5-1.3 0-1.8s1.3-.5 1.8 0l2.8 2.8 5.4-6.4c.4-.5 1.2-.6 1.8-.2.5.4.6 1.2.2 1.8l-7.3 8.5zm0 16.2L30.4 74c-.5-.5-.5-1.3 0-1.8s1.3-.5 1.8 0L35 75l5.4-6.4c.4-.5 1.2-.6 1.8-.2.5.4.6 1.2.2 1.8l-7.3 8.5zm3-37.8l3.5-3.5c.5-.5.5-1.3 0-1.8s-1.3-.5-1.8 0l-3.5 3.5-3.5-3.5c-.5-.5-1.3-.5-1.8 0s-.5 1.3 0 1.8l3.5 3.5-3.5 3.5c-.5.5-.5 1.3 0 1.8s1.3.5 1.8 0l3.5-3.5 3.5 3.5c.2.2.6.4.9.4s.7-.1.9-.4c.5-.5.5-1.3 0-1.8l-3.5-3.5z"/></symbol>
  <symbol id="search" viewBox="0 0 16 16"><path d="M14.8 12.8l-3.5-3.5c.9-1.6 1.1-3.6 0-5.6C10.5 2 8.7 1 6.8 1 4.1 1 1.7 2.8 1.1 5.4c-.7 3.6 2 6.7 5.4 6.7 1 0 2-.3 2.8-.8l3.4 3.4.1.1c.3.3.7.3.9 0l1.1-1.1c.3-.2.3-.7 0-.9zm-8.3-2.1c-2.9 0-5-2.9-3.7-5.9.6-1.5 2.2-2.4 3.7-2.4 1.1 0 2.1.4 2.9 1.2.8.8 1.2 1.8 1.2 2.9 0 1.1-.4 2.1-1.2 2.9-.7.9-1.8 1.3-2.9 1.3z"/></symbol>
  <symbol id="cancel" viewBox="0 0 16 16"><path d="M4.1 4.1c-2.2 2.2-2.2 5.7 0 7.9s5.7 2.2 7.9 0 2.2-5.7 0-7.9-5.9-2.3-7.9 0zm5.2 3.8l2.1 2.1-1.4 1.4-2-2.1-2.1 2.1L4.5 10l2.1-2.1-2.1-2.1 1.4-1.4L8 6.6l2.1-2.1 1.4 1.4-2.2 2z"/></symbol>
</svg>
